<svg width="30" height="48" viewBox="0 0 30 48" fill="none" xmlns="http://www.w3.org/2000/svg">
<path d="M29.3477 1.04411L29.3477 46.9572L14.9998 32.6093L0.652006 46.9572L0.652008 1.04411L29.3477 1.04411Z" fill="#FF7B42"/>
<path d="M29.3477 1.04411L29.8477 1.04411C29.8477 0.767971 29.6238 0.544113 29.3477 0.544113L29.3477 1.04411ZM29.3477 46.9572L28.9941 47.3107C29.1371 47.4537 29.3522 47.4965 29.539 47.4191C29.7258 47.3417 29.8477 47.1594 29.8477 46.9572L29.3477 46.9572ZM0.652006 46.9572L0.152006 46.9572C0.152006 47.1594 0.273828 47.3417 0.460665 47.4191C0.647503 47.4965 0.86256 47.4537 1.00556 47.3107L0.652006 46.9572ZM0.652008 1.04411L0.652008 0.544112C0.375866 0.544112 0.152008 0.767969 0.152008 1.04411L0.652008 1.04411ZM14.9998 32.6093L15.3534 32.2558C15.2596 32.162 15.1324 32.1093 14.9998 32.1093C14.8672 32.1093 14.74 32.162 14.6463 32.2558L14.9998 32.6093ZM28.8477 1.04411L28.8477 46.9572L29.8477 46.9572L29.8477 1.04411L28.8477 1.04411ZM1.15201 46.9572L1.15201 1.04411L0.152008 1.04411L0.152006 46.9572L1.15201 46.9572ZM0.652008 1.54411L29.3477 1.54411L29.3477 0.544113L0.652008 0.544112L0.652008 1.54411ZM29.7012 46.6036L15.3534 32.2558L14.6463 32.9629L28.9941 47.3107L29.7012 46.6036ZM14.6463 32.2558L0.298452 46.6036L1.00556 47.3107L15.3534 32.9629L14.6463 32.2558Z" fill="#FF7B42"/>
</svg>
